<svg width="20" height="18" viewBox="0 0 20 18" fill="none" xmlns="http://www.w3.org/2000/svg">
<path d="M19.46 4.5725C19.349 4.13826 19.1778 3.72171 18.9512 3.335C18.7336 2.93272 18.4554 2.56634 18.1262 2.24875C17.6491 1.77319 17.084 1.39492 16.4625 1.135C15.2115 0.621564 13.8085 0.621564 12.5575 1.135C11.97 1.38366 11.4303 1.73261 10.9625 2.16625L10.8937 2.24875L9.99999 3.1425L9.10624 2.24875L9.03749 2.16625C8.56965 1.73261 8.02994 1.38366 7.44249 1.135C6.19145 0.621564 4.78853 0.621564 3.53749 1.135C2.91597 1.39492 2.3509 1.77319 1.87374 2.24875C1.22111 2.88377 0.759126 3.68868 0.539991 4.5725C0.423411 5.02133 0.367911 5.48384 0.374991 5.9475C0.374991 6.38338 0.429991 6.81788 0.539991 7.24C0.655262 7.66631 0.821459 8.07719 1.03499 8.46375C1.2656 8.86114 1.54761 9.22637 1.87374 9.55L9.99999 17.6763L18.1262 9.55C18.4521 9.22963 18.7312 8.8625 18.9512 8.46375C19.3978 7.70077 19.6306 6.83155 19.625 5.9475C19.6321 5.48383 19.5766 5.02132 19.46 4.5725ZM18.085 6.81375C17.9203 7.44202 17.5931 8.01584 17.1362 8.4775L9.97249 15.6275L2.80874 8.4775C2.5753 8.2424 2.37206 7.97912 2.20374 7.69375C2.04535 7.41144 1.92074 7.11146 1.83249 6.8C1.76204 6.48859 1.72516 6.17053 1.72249 5.85125C1.72436 5.52285 1.76123 5.19559 1.83249 4.875C1.91815 4.56266 2.04289 4.26237 2.20374 3.98125C2.36874 3.6925 2.57224 3.43125 2.80874 3.1975C3.16197 2.849 3.57695 2.56924 4.03249 2.3725C4.95046 2.00527 5.97452 2.00527 6.89249 2.3725C7.34624 2.56088 7.75599 2.83725 8.10249 3.18375L9.97249 5.0675L11.8425 3.18375C12.1887 2.83664 12.5999 2.56099 13.0525 2.3725C13.9705 2.00527 14.9945 2.00527 15.9125 2.3725C16.3676 2.56913 16.7829 2.84963 17.1362 3.1975C17.3755 3.42438 17.5762 3.68838 17.7275 3.98125C18.046 4.54289 18.2119 5.17811 18.2087 5.82375C18.2274 6.15599 18.1997 6.4892 18.1262 6.81375H18.085Z" fill="#574AE8"/>
</svg>
